<?xml version="1.0" encoding="UTF-8"?>
<svg version="1.1" viewBox="0 0 2048 2048" width="512" height="512" xmlns="http://www.w3.org/2000/svg">
<path transform="translate(572)" d="m0 0h1120l29 7 16 5 17 7 18 10 14 10 11 9 12 11 10 11 12 16 10 17 10 21 7 22 4 19 2 23v1672l-2 22-5 23-7 21-9 19-11 18-13 17-7 8h-2l-2 4-8 7-12 10-15 10-23 12-21 8-23 6-16 3h-1328l-36-8-18-6-19-9-18-11-13-10-12-11-6-5-7-8-11-14-9-14-7-12-10-24-6-21-3-19-1-9-1-34v-516l1-64 5-9 4-5 9-6 8-3 1-77-6-1-9-5-7-7-4-8-1-3-1-21v-665l1-63 2-20 4-16 8-15 9-11 19-19 8-7 10-9 8-8h2l1-3 8-7 182-182 8-7 10-9 11-9 10-9 11-9 13-11 17-12 12-7 13-5 16-4z" fill="#F4F4F6"/>
<path transform="translate(572)" d="m0 0h1120l29 7 16 5 17 7 18 10 14 10 11 9 12 11 10 11 12 16 10 17 10 21 7 22 4 19 2 23v1672l-2 22-5 23-7 21-9 19-11 18-13 17-7 8h-2l-2 4-8 7-12 10-15 10-23 12-21 8-23 6-16 3h-1328l-36-8-18-6-19-9-18-11-13-10-12-11-6-5-7-8-11-14-9-14-7-12-10-24-6-21-3-19-1-9-1-34v-516l1-64 5-9 4-5 9-6 6-2h11l11 4 9 8 4 8 2 8 1 73v130l-1 343v47l1 17 4 20 4 12 9 19 12 17 12 13 13 11 18 11 19 8 15 4 15 2h1314l18-3 17-5 14-6 16-10 14-11 9-9 10-13 9-15 8-19 5-20 1-7 1-1654-1-33-3-18-7-21-10-19-9-12-11-12-10-9-18-12-17-8-16-5-19-3-1024-1v237l-2 23-5 23-5 15-8 16-10 14-15 15-15 10-16 8-18 6-19 4-18 2-75 1-207 1v41l1 131v58l-1 451-1 12-4 10-4 5-9 6-8 3h-11l-12-6-7-7-4-8-1-3-1-21v-665l1-63 2-20 4-16 8-15 9-11 19-19 8-7 10-9 8-8h2l1-3 8-7 182-182 8-7 10-9 11-9 10-9 11-9 13-11 17-12 12-7 13-5 16-4z" fill="#010000"/>
<path transform="translate(1194,1027)" d="m0 0h16l15 3 17 7 20 9 7 4 25 2 28 2 16 4 16 8 11 8 7 7 26 34 14 9 20 12 12 8 10 9 8 10 6 11 5 12 7 39 2 9 8 14 17 28 5 11 3 13 1 8v11l-4 20-11 34v17l1 17v30l-3 13-7 16-1 5 4 2 104 104 8 11 6 12 2 7v17l-4 13-7 10-7 7-10 6-12 4-35 5-54 7-1 1-10 79-3 15-7 14-9 10-9 6-10 4-5 1h-10l-14-3-12-6-10-8-136-136-5-3-38-7-8 1-41 7-19 1-5 5-10 9-30 30-5 6-7 6-5 6-7 6-5 6-8 7-27 27-6 7-6 5-7 8-10 9-14 9-11 4-7 1h-10l-12-3-12-7-8-8-7-12-4-14-8-62-3-23-6-2-73-9-18-4-12-6-10-9-6-9-4-10-1-4v-15l4-13 6-11 11-12 111-111 1-4-4-15-1-7v-14l3-36-15-50-2-13 1-17 4-16 8-16 15-24 5-10 9-47 4-12 7-13 9-11 11-10 22-13 17-10 10-12 10-13 11-14 10-10 14-9 15-6 19-3 36-2 16-6 33-15 11-3z" fill="#010000"/>
<path transform="translate(1658,63)" d="m0 0h39l17 5 16 7 12 7 12 9 12 11 10 11 10 15 9 19 5 16 3 18 1 33-1 1654-4 20-5 15-8 16-9 14-11 13-8 8-16 12-14 8-15 6-14 4-18 3h-1187v-1l1125-1 10-1v-2h2l1-4 11-11 10-13 10-16 8-16 7-19 4-20 1-11 1-23v-1653l-1-25-4-25-5-15-8-18-10-16-11-14-11-12 1-4 18-1 6-1z" fill="#D4D0D5"/>
<path transform="translate(1189,1091)" d="m0 0 3 1v3l8 15 5 13 11 28 4 11 1 4v7l-2 1-33 1-22 4-18 5-18 8-16 9-17 13-10 9-7 8-9 11-12 19-8 18-5 15-4 17-2 17v25l3 21 6 21 6 14 5 6 6 4 10 3h9l11-4 8-7 5-11 1-3v-10l-7-21-3-16v-23l4-18 7-18 10-16 10-11h2v-2l13-10 16-9 13-5 17-3h25l16 3 13 5 17 9 11 9 5 4 9 11 7 10 8 16 5 19 1 6v27l-4 17-8 18-7 11-9 11-9 9-13 9-16 8-12 4-19 3-16 2-10 5-5 5-3 4-3 11 1 12 5 10 7 6 8 4 6 1 22-1 7-1h8v11l-6 27-8 29-4 13h-19l-48 9h-9l-10-5-14-12-16-13-10-6-30-10-22-7-7-4-6-10-9-20-8-18-6-9-35-35-5-8-1-3v-14l2-25v-20l-10-33-6-20v-8l7-14 12-19 8-14 3-9 10-51 3-6 5-5 22-13 17-10 10-9 13-17 12-15 7-8 6-5 3-1 33-2 19-1 16-6z" fill="#FEE18E"/>
<path transform="translate(1196,1088)" d="m0 0h11l18 8 26 12 7 2 43 3 16 2 7 4 8 9 14 19 11 14 17 11 17 10 17 11 6 9 4 19 5 30 4 9 11 19 15 25 2 5v10l-14 43-1 4v19l2 28v16l-4 8-9 10-15 14-12 12-8 16-7 16-7 15-6 11-9 6-33 10-15 5-13 9-16 13-9 7-10 7-4 2h-12l-29-6-7-1 2-1 2-10 7-24 7-29 1-6v-9l1-2-15 2-22 1-8-2-9-5-7-8-3-7-1-12 4-13 5-6 10-6 9-2 24-3 14-4 16-7 13-9 10-9 8-9 7-11 8-16 4-13 2-9v-27l-5-22-6-14-9-14-9-10v-2l-4-2-9-8-14-8-13-6-15-4-7-1h-25l-17 3-15 6-14 8-10 8-3 1v2l-5 5-8 9-8 13-8 21-3 15v23l4 20 6 17v10l-5 12-7 8-10 5-4 1h-9l-12-4-8-7-6-12-6-18-4-20-1-9v-25l2-17 5-21 7-18 8-16 7-11 10-13 7-7 4-5 8-7 13-10 16-10 17-8 18-6 20-4 7-1 35-1-3-15-8-20-9-22-5-12-6-11 1-3z" fill="#FED455"/>
<path transform="translate(577,61)" d="m0 0h20v239l-3 22-5 15-6 11-7 8-11 7-12 5-11 3-14 2-95 1h-188l2-9 6-8 8-8 8-7 10-9 15-14 123-123 8-7 66-66 8-7 14-12 13-11 14-12 13-10 12-7z" fill="#A19AA1"/>
<path transform="translate(588,855)" d="m0 0h858l11 1 9 4 8 7 6 12v13l-4 10-7 8-10 5-4 1-380 1h-209l-317-1-10-4-8-7-5-8-2-9 1-10 5-10 8-8 9-4z" fill="#010000"/>
<path transform="translate(551,679)" d="m0 0h903l10 3 6 4 7 8 4 11v9l-3 9-4 6-8 7-7 3-9 1h-897l-9-2-8-5-7-8-4-11v-9l4-11 7-8 7-5z" fill="#010000"/>
<path transform="translate(1186,1174)" d="m0 0h31l16 2 23 6 21 9 16 9 17 13 14 13 9 11 11 16 8 14 6 14 6 20 3 16 1 7v31l-3 19-6 21-7 16-9 17-12 16-9 10-11 11-17 13-18 10-16 7-16 5-22 4-22 1-8-2-9-5-7-8-3-7-1-12 4-13 5-6 10-6 9-2 24-3 14-4 16-7 13-9 10-9 8-9 7-11 8-16 4-13 2-9v-27l-5-22-6-14-9-14-9-10v-2l-4-2-9-8-14-8-13-6-15-4-7-1h-25l-17 3-15 6-14 8-10 8-3 1v2l-5 5-8 9-8 13-8 21-3 15v23l4 20 6 17v10l-5 12-7 8-10 5-4 1h-9l-12-4-8-7-6-12-6-18-4-20-1-9v-25l2-17 5-21 7-18 8-16 7-11 10-13 7-7 4-5 8-7 13-10 16-10 17-8 18-6 20-4z" fill="#010000"/>
<path transform="translate(1190,1235)" d="m0 0h25l16 3 13 5 17 9 11 9 5 4 9 11 7 10 8 16 5 19 1 6v27l-4 17-8 18-7 11-9 11-9 9-13 9-16 8-12 4-19 3-16 2-10 5-5 5-3 4-4 13-11-2-20-9-16-10-9-7-12-11-8-8-3-4-3-2 8-5 5-6 5-12v-10l-7-21-3-16v-23l4-18 7-18 10-16 10-11h2v-2l13-10 16-9 13-5z" fill="#FBB548"/>
<path transform="translate(755,496)" d="m0 0h493l9 2 8 5 7 8 4 11v9l-4 11-8 9-10 5-7 1h-491l-10-3-6-4-8-9-3-8v-12l3-9 6-8 9-6z" fill="#010000"/>
<path transform="translate(461,153)" d="m0 0h2l-1 4 1 15v118l-3 29-5 20-8 18-7 11-1 3-11 1-145 1h-37l1-8 6-8 8-8 8-7 10-9 15-14 123-123 8-7z" fill="#D4D0D5"/>
<path transform="translate(946,1505)" d="m0 0 4 2 7 7 8 16 10 23 9 15 10 11 14 10 11 5 46 15 9 6 8 6-6 8-99 99-4 1-2-19-8-63-3-13-4-7v-2h-2l-4-4-9-4-18-3-71-9-3-1 2-4z" fill="#FE666F"/>
<path transform="translate(1449,1514)" d="m0 0 7 6 85 85v2l-36 5-53 7-9 3-7 5-6 10-2 7-8 62-3 23-2 3-101-101v-2l6-4 10-8 16-12 31-9 12-4 10-5 13-9 8-8 10-15z" fill="#FE666F"/>
<path transform="translate(549,1032)" d="m0 0h206l10 3 9 7 6 11 1 4v10l-4 11-7 8-12 6-34 1h-172l-11-3-8-6-6-7-3-9v-11l4-10 6-8 8-5z" fill="#010000"/>
<path transform="translate(1246,1257)" d="m0 0h7l9 6 8 8v2l4 2 6 5 5 7 2 1v2h2l1-2h2l1-2 8 16 5 19 1 6v27l-4 17-7 16-2-2-3 1-2 4-7 8h-2l-2 4-10 10-5 4h-2v2l-9 6h-3l-1-2v-13l1-33v-35l-1-21-3-49-1-12z" fill="#F38F48"/>
<path transform="translate(1800,363)" d="m0 0h1l1 34v991l-1 29h-1l-1-856z" fill="#F5F5F7"/>
<path transform="translate(1734,79)" d="m0 0 5 1 14 10 13 12 10 11 10 15 9 19 5 16v10l-2 3-2-3-1-8v-3l1-3-2-2v-6h-2l-2-9v-2h-2v-4l-6-2-3-5v-2h-2v-2h-2l-2-5h-2l-8-11-7-8-8-7-9-7 2-2-2-2-5 1-3-3h4z" fill="#EEEDF0"/>
<path transform="translate(1788,137)" d="m0 0 3 1 6 15 3 10v10l-2 3-2-3-1-8v-3l1-3-2-2v-6h-2l-2-9v-2h-2z" fill="#EDECEE"/>
<path transform="translate(1439,1385)" d="m0 0h1l2 28v16l-2-3-1-12z" fill="#F8A748"/>
<path transform="translate(904,1376)" d="m0 0 2 3 1 5-2 24h-1z" fill="#C2BDC3"/>
<path transform="translate(1293,1113)" d="m0 0 20 1 4 2h-17l-7-1z" fill="#F9AA48"/>
<path transform="translate(1788,137)" d="m0 0 3 1 6 15-1 2-2-4h-2l-2-9v-2h-2z" fill="#E2E0E4"/>
<path transform="translate(1108,1401)" d="m0 0 1 2-3 8-6 5 1-4 6-10z" fill="#FCC652"/>
</svg>
