<?xml version="1.0" encoding="UTF-8"?>
<svg version="1.1" viewBox="0 0 2032 2032" width="508" height="508" xmlns="http://www.w3.org/2000/svg">
<path transform="translate(0)" d="m0 0h2032v2032h-2032z" fill="#FEFEFE"/>
<path transform="translate(909,272)" d="m0 0h158l16 5 14 8 12 12 8 13 5 13 2 9 1 14 4 9 6 8 8 5 13 4 27 7 43 14 28 11 24 11 27 14 23 14 17 12 17 13 13 11 10 9 26 26 9 11 13 16 11 16 15 22 2 1-1-3 1-8 4-72 1-28 2-14 4-11 6-9 6-5 6-2h8l12 3 10 9 12 19 10 18 6 15 4 15 5 30 6 64 4 38 5 25 7 19 8 13 11 15 7 16 3 12 3 25 3 49v73l-3 39-5 34 1 7 11 10 11 9 13 12 9 9 9 13 8 16 4 16v27l-4 18-6 17-7 15-12 23-13 21-11 16-10 13-9 11-12 14-11 11-7 8-13 12-7 7-8 7-10 9-14 11-14 12-13 10-38 28-18 13-34 24-19 14-9 9-6 10-6 14-10 26-10 23-11 24-10 19-12 22-14 22-8 12-10 14-12 16-11 13-9 11-14 15-27 27-8 7-13 11-13 10-14 10-19 12-25 13-25 10-23 7-29 6-25 3h-40l-27-3-29-6-23-7-24-10-26-13-21-13-16-12-10-8-13-12-10-9-30-30-7-8-9-10-11-14-16-21-16-24-13-21-14-25-15-30-11-24-2-1-7 9-8 8-7 8-13 13-8 7-10 9-14 11-12 9-20 13-23 12-20 7-16 3h-19l-15-3-16-6-14-9-11-9-10-10-9-14-7-15-4-16-1-10v-11l2-19 6-25 6-21 11-28 8-17 10-19 13-22 16-23 13-18 13-16 9-11 13-15 9-11 10-10 7-8 12-12 7-8 8-8 7-8 19-19 7-8 15-16 2-2-1-5-9-11-12-14-9-11-10-11-9-11-8-8-6-7-6-4-4-1h-32l-16-1-19-4-13-5-13-7-10-8-10-9-11-14-8-13-6-12-4-15-1-8-1-34v-138l2-26 3-12 8-16 14-25 8-15 5-15 4-31 10-92 3-29 4-22 6-16 7-13 7-9 8-8 11-7 12-4h7l8 3 8 9 5 11 2 12 3 38 3 63v14l6-5 10-14 11-16 10-13 9-10 9-11 24-24 8-7 13-11 12-9 13-9 17-11 15-9 22-12 31-14 36-14 32-10 37-10 10-6 7-10 4-9 3-20 4-12 9-15 12-12 14-8z" fill="#1C1263"/>
<path transform="translate(985,526)" d="m0 0h15l33 1 43 3 33 4 29 5 31 7 31 9 32 11 25 11 25 12 14 8 19 12 14 10 14 11 12 11 19 19 11 14 11 15 9 15 13 25 8 20 8 25 6 27 4 31 1 14v32l-3 22-7 25-9 21-9 17-10 14-9 11-9 10-9 9-14 11-12 9-22 12-25 10-27 8-29 6-28 4-15 1h-33l-34-3-49-8-27-4-33-3-20-1h-28l-39 2-34 3-63 8-33 4-13 1h-48l-27-3-22-4-23-6-24-9-17-8-22-13-14-10-15-13-14-14-10-13-10-15-8-16-8-21-5-21-3-22v-33l2-26 5-29 6-26 9-26 9-20 12-22 8-12 9-12 11-13 7-8 16-16 11-9 14-11 21-14 21-12 23-12 29-12 31-11 35-10 37-8 30-5 40-4 17-1z" fill="#1C1263"/>
<path transform="translate(1125,392)" d="m0 0 7 1 32 8 36 11 31 11 27 12 23 11 23 13 17 11 14 10 13 10 14 12 12 11 14 14 7 8 13 16 11 15 10 15 11 19 8 16 9 20 10 26 8 26 7 29 6 33 4 35 2 29v23l-3 34-3 20-5 24-8 27-11 28-15 30-13 21-11 16-11 13-8 10-21 21-8 7-16 13-18 13-21 13-29 15-21 10-31 12-31 10-39 10-38 7-29 4-42 4-39 2h-72l-59-4-33-4-36-6-33-7-29-8-36-12-29-12-22-10-23-13-21-14-16-12-11-9-12-11-9-8-7-8-13-14-11-14-12-17-12-20-12-23-11-26-9-29-6-26-4-25-2-21v-49l3-35 5-34 8-37 8-26 7-19 12-28 11-21 16-26 13-18 11-14 10-11 7-8 21-21 11-9 13-11 17-12 15-10 25-14 16-8 19-9 29-11 24-8 29-8 34-8h5l4 20 5 12 8 12 9 9 20 15 21 16 34 25 10 5 17 4h17l15-4 14-7 18-13 18-14 19-14 17-13 8-7 7-10 6-12 4-16zm-140 134-50 1-40 3-30 4-37 7-32 8-32 10-32 12-26 12-19 10-20 12-20 14-17 14-12 11-14 14-9 11-10 13-10 15-13 24-9 21-9 27-6 26-4 25-2 26v33l4 27 5 19 11 27 11 18 10 13 11 12 10 10 11 9 17 12 25 14 26 11 27 8 21 4 22 3 11 1h48l31-3 69-9 30-3 28-2 24-1h28l32 2 36 4 54 9 26 3 15 1h33l23-2 26-4 27-6 29-9 23-10 18-10 12-9 10-8 12-11 8-8 11-14 8-11 9-16 8-17 7-21 4-18 2-16v-32l-3-32-4-23-6-24-10-29-14-29-9-15-8-12-13-17-12-13-19-19-14-11-15-11-19-12-17-10-31-15-27-11-40-13-36-9-32-6-30-4-35-3-18-1-46-1z" fill="#FEFEFE"/>
<path transform="translate(637,1154)" d="m0 0 25 10 28 11 34 12 33 10 37 10 37 8 41 7 33 4 40 3 19 1h49l47-3 36-4 38-6 48-10 41-11 36-11 31-11 35-14 14-5 4 2 8 13 7 17 5 24 3 30v43l-4 35-7 33-8 29-11 32-11 28-2 5-16-4-72-19-27-8-3-2 1-11 4-23v-23l-4-15-6-12-8-10-9-7-14-7-20-5-32-5-33-3h-45l-95 2-100 4-21 2-12 3-14 6-9 7-5 4-9 13-7 16-2 13v14l3 15 5 22v2l-21 6-85 22-7 2-5-1-11-23-10-26-10-33-7-31-5-33-2-20v-42l3-25 5-21 6-16 6-11 5-8z" fill="#FEFEFE"/>
<path transform="translate(1197,1439)" d="m0 0 8 1 96 28 9 3 1 3-9 17-8 16-12 21-13 21-14 20-10 13-11 14-12 14-7 8-14 15-8 8-8 7-13 12-11 9-18 14-17 11-22 12-25 10-24 7-24 5-24 3h-39l-23-3-28-6-30-10-20-9-19-11-19-13-17-13-14-12-10-9-15-14-15-16-12-14-13-16-14-19-14-21-11-18-12-21-12-23-2-5v-5l25-10 31-9 37-10 12-1 7 3 6 7 9 19 7 16 10 19 10 15 10 14 12 13 4 5 16 14 18 12 19 10 25 9 23 5 24 3h33l23-3 21-5 20-7 17-8 11-7 12-8 11-9 13-12 9-10 12-16 10-16 12-23 10-21z" fill="#FEFEFE"/>
<path transform="translate(973,1315)" d="m0 0h28l72 4 55 4 17 2 15 4 10 5 7 6 5 10 2 13-2 15-9 31-12 34-13 30-11 21-8 12-10 13-12 13-12 11-16 11-16 9-20 8-18 5-17 3-10 1h-19l-23-3-23-6-17-7-16-8-11-7-12-9-15-14-11-13-11-16-9-16-10-23-10-28-11-34-5-18-1-4v-15l3-10 6-9 9-8 11-5 12-2 58-5 60-4z" fill="#FEFEFE"/>
<path transform="translate(1587,998)" d="m0 0h13l12 5 14 11 9 12 6 12 3 10 1 7v14l-5 22-7 20-8 18-12 21-13 19-16 20-9 10-27 27-8 7-10 9-11 9-14 12-14 11-13 11-12 9-15 12-26 20-15 12-17 13-7 4h-3l1-9 6-32 3-28v-47l-4-28-6-25-7-20-12-27 1-4 8-7 10-10 7-8 12-12 7-8 44-44 10-6 13-4 31-2 20-4 16-5 19-10 13-10 9-6z" fill="#FEFEFE"/>
<path transform="translate(605,1140)" d="m0 0 1 4-12 43-6 26-4 30-1 21 2 36 4 28 8 36 8 28 6 19 1 6v9l-7 14-12 13-5 6-6 5-7 8-8 7-14 13-14 11-17 12-18 10-19 9-14 4-6 1h-13l-14-3-12-5-11-7-7-6-8-11-7-14-4-17v-16l3-24 6-24 9-24 9-20 13-23 14-22 11-16 12-17 9-12 10-13 13-16 9-11 11-12 7-8 11-12 12-13 25-25 8-7 12-12z" fill="#FEFEFE"/>
<path transform="translate(955,1333)" d="m0 0h87l31 1 14 3 9 4 8 6 8 9 8 14 4 13v7l-189 1-9 4-5 4-5 11-2 9v23l3 12 6 9 5 4 10 3h125v-9l-2-3h-27l2-5 15-28 10-18 2-4h61v76l-3 14-4 8-10 11-15 10-13 4h-157l-16-3-13-5-13-9-9-9-7-10-6-12-4-17-2-18 1-35 3-19 5-14 6-10 13-13 13-9 12-5 11-3 7-1z" fill="#1C1263"/>
<path transform="translate(934,305)" d="m0 0h109l12 3 11 6 7 6 7 10 4 9 2 10 1 22v16l-2 16-4 11-5 8-6 7-11 9-14 10-18 14-13 9-10 5-13 3-11-1-13-4-12-8-19-14-13-10-12-9-8-7-8-12-4-12-1-5v-50l4-12 7-12 8-8 10-6 8-3z" fill="#FEFEFE"/>
<path transform="translate(472,676)" d="m0 0h4l-1 11-9 48-5 37-2 19-2 40 1 6v16l2 22 5 34 6 25 8 26 10 25 7 16 1 5-7 1h-21l-17-3-14-5-14-9-10-9-9-13-6-13-4-16-1-7-2-40-1-36v-57l2-49 3-16 6-15 10-14 8-8 14-9 11-5 14-4z" fill="#FEFEFE"/>
<path transform="translate(1502,677)" d="m0 0 19 3 16 5 13 7 11 9 7 7 8 13 5 13 2 15 2 61v42l-2 56-2 31-3 17-5 12-9 12-9 9-13 8-11 5-14 4-16 2-16-1-5-1 1-6 12-27 10-30 6-23 5-26 4-37v-58l-4-40-6-38-7-35v-8z" fill="#FEFEFE"/>
<path transform="translate(946,316)" d="m0 0h88l12 2 10 6 6 8 5 12 1 5-1 1-112 1-7 3-5 8-1 4v16l4 10 5 4 9 1h70l1-5-17-1-1-3 15-28 2-3h37v49l-3 9-9 10-9 5-9 2h-88l-16-3-9-5-10-9-6-10-3-10v-40l3-12 6-10 7-7 10-6 9-3z" fill="#1C1263"/>
<path transform="translate(958,554)" d="m0 0h64l31 2 35 4 35 6 28 6 31 8 25 8 20 7 26 11 29 15 27 18 11 9 14 12 14 14 9 11 10 13 10 15 9 16 5 9-1 3-8-11-12-17-11-13-12-14-10-9-11-9-15-12-18-12-25-14-16-8-19-8-30-11-24-7-32-8-35-7-39-6-27-3-45-2h-27l-31 1-34 3-35 5-36 7-36 9-38 12-27 10-26 12-23 13-18 12-14 11-14 12-17 17-18 22-14 21-12 21-3 6-1-4 6-16 9-20 10-17 14-19 12-13 18-18 11-9 17-13 15-10 21-12 22-11 25-10 36-12 40-10 44-8 40-5z" fill="#FEFEFE"/>
<path transform="translate(779,785)" d="m0 0h19l17 2 17 4 16 7 11 7 12 11 8 9 9 14 2 7-1 9-6 8-5 4-8 3-7-1-6-4-6-5-7-8-10-9-11-7-11-4-16-2-14 1-15 5-12 8-9 8-11 14-9 6h-11l-8-4-6-8-1-2v-12l4-11 9-13 9-10 14-11 14-8 18-6z" fill="#FEFEFE"/>
<path transform="translate(1161,785)" d="m0 0h24l20 3 17 5 16 8 11 8 11 10 9 11 5 8 1 9-4 15-6 7-8 1-10-3-9-6-7-8-10-9-14-8-13-5-9-1h-9l-12 2-14 6-12 9-16 16-9 6h-11l-9-6-6-9-1-6 3-10 6-10 9-11 13-13 14-9 16-7z" fill="#FEFEFE"/>
<path transform="translate(473,461)" d="m0 0 4 1 2 4 3 44 2 35 4 72v7l-3 9-7 9-12 7-7 2h-10l-6-3-4-5-1-4 1-19 7-71 6-46 4-13 6-12 9-14z" fill="#FEFEFE"/>
<path transform="translate(1498,464)" d="m0 0 6 1 7 7 6 10 6 18 4 21 5 44 6 62v15l-4 6-5 1-13-1-16-4-8-5-4-8v-18l4-61 4-74 1-11z" fill="#FEFEFE"/>
</svg>
